# xmcd CD database file
#
# Track frame offsets:
#	150
#	12155
#	25380
#	44460
#	57862
#	82237
#	104275
#	122757
#	136285
#	153552
#
# Disc length: 2211 seconds
#
# Revision: 0
# Processed by: cddbd v1.5.2PL0 Copyright (c) Steve Scherf et al.
# Submitted via: CDex 1.51
#
DISCID=8308a10a
DTITLE=Chano Martinez Sextet - A Bailar Señores - Featuring Ruy Calzado
DYEAR=1989
DGENRE=Salsa
TTITLE0=A San Francisco
TTITLE1=A Bailar Senores
TTITLE2=Gunga Din
TTITLE3=En La Magia De Un Sueno
TTITLE4=The Shadow Of Your Smile
TTITLE5=Sans Souci
TTITLE6=Eres Mia
TTITLE7=Malanga, Maria?
TTITLE8=Inocencia
TTITLE9=Larala-Lalala
EXTD=YEAR: 1989
EXTT0=
EXTT1=
EXTT2=
EXTT3=
EXTT4=
EXTT5=
EXTT6=
EXTT7=
EXTT8=
EXTT9=
PLAYORDER=
